<svg id="visual" viewBox="0 0 450 900" width="450" height="900" xmlns="http://www.w3.org/2000/svg" xmlns:xlink="http://www.w3.org/1999/xlink" version="1.1"><rect x="0" y="0" width="450" height="900" fill="#a9ffff"></rect><path d="M0 274L8.3 279.7C16.7 285.3 33.3 296.7 50 297.5C66.7 298.3 83.3 288.7 100 259.8C116.7 231 133.3 183 150 175.2C166.7 167.3 183.3 199.7 200 212.8C216.7 226 233.3 220 250 215.3C266.7 210.7 283.3 207.3 300 226.7C316.7 246 333.3 288 350 283.2C366.7 278.3 383.3 226.7 400 226.5C416.7 226.3 433.3 277.7 441.7 303.3L450 329L450 901L441.7 901C433.3 901 416.7 901 400 901C383.3 901 366.7 901 350 901C333.3 901 316.7 901 300 901C283.3 901 266.7 901 250 901C233.3 901 216.7 901 200 901C183.3 901 166.7 901 150 901C133.3 901 116.7 901 100 901C83.3 901 66.7 901 50 901C33.3 901 16.7 901 8.3 901L0 901Z" fill="#3c9e99"></path><path d="M0 397L8.3 370.5C16.7 344 33.3 291 50 281.5C66.7 272 83.3 306 100 327.7C116.7 349.3 133.3 358.7 150 359.8C166.7 361 183.3 354 200 340.7C216.7 327.3 233.3 307.7 250 320.8C266.7 334 283.3 380 300 365.2C316.7 350.3 333.3 274.7 350 239.5C366.7 204.3 383.3 209.7 400 225.7C416.7 241.7 433.3 268.3 441.7 281.7L450 295L450 901L441.7 901C433.3 901 416.7 901 400 901C383.3 901 366.7 901 350 901C333.3 901 316.7 901 300 901C283.3 901 266.7 901 250 901C233.3 901 216.7 901 200 901C183.3 901 166.7 901 150 901C133.3 901 116.7 901 100 901C83.3 901 66.7 901 50 901C33.3 901 16.7 901 8.3 901L0 901Z" fill="#22929b"></path><path d="M0 330L8.3 337.3C16.7 344.7 33.3 359.3 50 356C66.7 352.7 83.3 331.3 100 352.3C116.7 373.3 133.3 436.7 150 457.7C166.7 478.7 183.3 457.3 200 426.3C216.7 395.3 233.3 354.7 250 347.7C266.7 340.7 283.3 367.3 300 398.2C316.7 429 333.3 464 350 450C366.7 436 383.3 373 400 351.2C416.7 329.3 433.3 348.7 441.7 358.3L450 368L450 901L441.7 901C433.3 901 416.7 901 400 901C383.3 901 366.7 901 350 901C333.3 901 316.7 901 300 901C283.3 901 266.7 901 250 901C233.3 901 216.7 901 200 901C183.3 901 166.7 901 150 901C133.3 901 116.7 901 100 901C83.3 901 66.7 901 50 901C33.3 901 16.7 901 8.3 901L0 901Z" fill="#05869a"></path><path d="M0 422L8.3 438.5C16.7 455 33.3 488 50 486.2C66.7 484.3 83.3 447.7 100 433.8C116.7 420 133.3 429 150 436.2C166.7 443.3 183.3 448.7 200 473.8C216.7 499 233.3 544 250 553.3C266.7 562.7 283.3 536.3 300 517C316.7 497.7 333.3 485.3 350 490.8C366.7 496.3 383.3 519.7 400 513.2C416.7 506.7 433.3 470.3 441.7 452.2L450 434L450 901L441.7 901C433.3 901 416.7 901 400 901C383.3 901 366.7 901 350 901C333.3 901 316.7 901 300 901C283.3 901 266.7 901 250 901C233.3 901 216.7 901 200 901C183.3 901 166.7 901 150 901C133.3 901 116.7 901 100 901C83.3 901 66.7 901 50 901C33.3 901 16.7 901 8.3 901L0 901Z" fill="#007998"></path><path d="M0 533L8.3 543.5C16.7 554 33.3 575 50 573.2C66.7 571.3 83.3 546.7 100 554.7C116.7 562.7 133.3 603.3 150 621.3C166.7 639.3 183.3 634.7 200 633.7C216.7 632.7 233.3 635.3 250 620.7C266.7 606 283.3 574 300 581.3C316.7 588.7 333.3 635.3 350 646.8C366.7 658.3 383.3 634.7 400 624.3C416.7 614 433.3 617 441.7 618.5L450 620L450 901L441.7 901C433.3 901 416.7 901 400 901C383.3 901 366.7 901 350 901C333.3 901 316.7 901 300 901C283.3 901 266.7 901 250 901C233.3 901 216.7 901 200 901C183.3 901 166.7 901 150 901C133.3 901 116.7 901 100 901C83.3 901 66.7 901 50 901C33.3 901 16.7 901 8.3 901L0 901Z" fill="#056b93"></path><path d="M0 652L8.3 658.3C16.7 664.7 33.3 677.3 50 684.3C66.7 691.3 83.3 692.7 100 696.3C116.7 700 133.3 706 150 698.2C166.7 690.3 183.3 668.7 200 653C216.7 637.3 233.3 627.7 250 647.7C266.7 667.7 283.3 717.3 300 717.2C316.7 717 333.3 667 350 654.3C366.7 641.7 383.3 666.3 400 690C416.7 713.7 433.3 736.3 441.7 747.7L450 759L450 901L441.7 901C433.3 901 416.7 901 400 901C383.3 901 366.7 901 350 901C333.3 901 316.7 901 300 901C283.3 901 266.7 901 250 901C233.3 901 216.7 901 200 901C183.3 901 166.7 901 150 901C133.3 901 116.7 901 100 901C83.3 901 66.7 901 50 901C33.3 901 16.7 901 8.3 901L0 901Z" fill="#1a5d8b"></path><path d="M0 792L8.3 796.2C16.7 800.3 33.3 808.7 50 811.2C66.7 813.7 83.3 810.3 100 799.7C116.7 789 133.3 771 150 771.2C166.7 771.3 183.3 789.7 200 785.7C216.7 781.7 233.3 755.3 250 747.5C266.7 739.7 283.3 750.3 300 751.8C316.7 753.3 333.3 745.7 350 747.2C366.7 748.7 383.3 759.3 400 772.3C416.7 785.3 433.3 800.7 441.7 808.3L450 816L450 901L441.7 901C433.3 901 416.7 901 400 901C383.3 901 366.7 901 350 901C333.3 901 316.7 901 300 901C283.3 901 266.7 901 250 901C233.3 901 216.7 901 200 901C183.3 901 166.7 901 150 901C133.3 901 116.7 901 100 901C83.3 901 66.7 901 50 901C33.3 901 16.7 901 8.3 901L0 901Z" fill="#2a4f81"></path></svg>